<?xml version="1.0" standalone="no"?>
<!DOCTYPE svg PUBLIC "-//W3C//DTD SVG 20010904//EN"
 "http://www.w3.org/TR/2001/REC-SVG-20010904/DTD/svg10.dtd">
<svg version="1.0" xmlns="http://www.w3.org/2000/svg"
 width="700.000000pt" height="700.000000pt" viewBox="0 0 700.000000 700.000000"
 preserveAspectRatio="xMidYMid meet">
<metadata>
Created by potrace 1.11, written by Peter Selinger 2001-2013
</metadata>
<g transform="translate(0.000000,700.000000) scale(0.100000,-0.100000)"
fill="#000000" stroke="none">
<path d="M3369 6786 c-2 -2 -33 -6 -69 -10 -71 -6 -151 -20 -214 -37 -23 -6
-52 -13 -66 -16 -25 -4 -188 -56 -225 -72 -137 -56 -390 -194 -450 -243 -11
-9 -49 -39 -85 -65 -89 -66 -283 -260 -362 -363 -109 -141 -216 -325 -288
-495 -27 -63 -76 -226 -96 -320 -9 -41 -22 -125 -32 -215 -13 -108 -5 -392 14
-482 2 -13 7 -36 10 -53 36 -202 137 -457 261 -660 74 -120 226 -350 235 -353
5 -2 8 -8 8 -13 0 -5 16 -32 36 -60 142 -202 260 -472 299 -684 22 -119 23
-130 30 -250 4 -60 9 -128 12 -150 8 -68 9 -215 1 -215 -16 0 -24 -2 -58 -16
-19 -8 -46 -25 -59 -37 -29 -27 -61 -93 -61 -127 0 -81 57 -159 132 -182 24
-6 45 -15 48 -19 3 -4 5 -85 5 -180 l-1 -173 -42 -13 c-138 -40 -186 -204 -89
-303 39 -40 68 -52 129 -55 43 -2 51 -7 80 -43 64 -79 150 -128 242 -139 45
-6 56 -12 96 -56 117 -131 355 -263 542 -301 132 -27 264 -18 403 29 152 51
345 172 437 273 35 39 54 52 75 52 15 0 45 5 65 10 21 6 39 10 40 9 10 -8 126
88 158 130 57 75 73 134 75 275 l1 119 46 14 c75 21 138 99 138 169 0 85 -71
175 -147 187 l-38 6 1 173 c1 95 2 178 3 184 0 6 17 14 36 17 73 12 145 100
145 178 -1 80 -68 164 -142 175 l-40 7 6 74 c16 194 73 395 168 588 52 105 58
114 273 439 177 266 318 508 340 586 4 14 13 39 21 55 24 55 74 250 90 356 17
113 23 350 11 468 -25 253 -90 475 -210 716 -31 62 -122 212 -144 240 -5 6
-36 46 -70 90 -309 403 -777 677 -1308 766 -57 10 -408 22 -416 15z"/>
</g>
</svg>
